<svg xmlns="http://www.w3.org/2000/svg" xmlns:xlink="http://www.w3.org/1999/xlink" viewBox="0 0 33 32">
  <defs>
    <path id="ico_chat-a" d="M9.29361702,-3.28270744e-12 L21.8174941,-3.2844838e-12 C26.950217,-3.28542666e-12 31.1111111,4.16089407 31.1111111,9.29361702 C31.1111111,14.42634 26.950217,18.587234 21.8174941,18.587234 L15.8069416,18.587234 L11.4162606,22.0425532 L11.4162606,18.587234 L9.29361702,18.587234 C4.16089407,18.587234 -1.14777957e-15,14.42634 -1.77635684e-15,9.29361702 C-2.40493411e-15,4.16089407 4.16089407,-3.28176457e-12 9.29361702,-3.28270744e-12 Z M10.6068471,11.0931768 C11.4764686,11.0931768 12.1814362,10.4236077 12.1814362,9.59765224 C12.1814362,8.77169682 11.4764686,8.10212766 10.6068471,8.10212766 C9.73722559,8.10212766 9.03225806,8.77169682 9.03225806,9.59765224 C9.03225806,10.4236077 9.73722559,11.0931768 10.6068471,11.0931768 Z M15.5555556,11.0931768 C16.4251771,11.0931768 17.1301446,10.4236077 17.1301446,9.59765224 C17.1301446,8.77169682 16.4251771,8.10212766 15.5555556,8.10212766 C14.685934,8.10212766 13.9809665,8.77169682 13.9809665,9.59765224 C13.9809665,10.4236077 14.685934,11.0931768 15.5555556,11.0931768 Z M20.504264,11.0931768 C21.3738855,11.0931768 22.078853,10.4236077 22.078853,9.59765224 C22.078853,8.77169682 21.3738855,8.10212766 20.504264,8.10212766 C19.6346425,8.10212766 18.9296749,8.77169682 18.9296749,9.59765224 C18.9296749,10.4236077 19.6346425,11.0931768 20.504264,11.0931768 Z"/>
  </defs>
  <g fill="none" fill-rule="evenodd" transform="translate(1.8 5.8)">
    <mask id="ico_chat-b" fill="#fff">
      <use xlink:href="#ico_chat-a"/>
    </mask>
    <use fill="#F7A70F" xlink:href="#ico_chat-a"/>
    <g fill="#FFF" mask="url(#ico_chat-b)">
      <path d="M0 0H31.177V22.126H0z"/>
    </g>
  </g>
</svg>
