<svg xmlns="http://www.w3.org/2000/svg" xmlns:xlink="http://www.w3.org/1999/xlink" viewBox="0 0 15 20">
  <defs>
    <path id="lock_ico-a" d="M13.6433197,7.92655445 L12.8315966,7.92655445 L12.8315966,5.20465692 C12.8315966,2.33305503 10.3964274,0 7.39913993,0 C4.40185247,0 1.96668325,2.33305503 1.96668325,5.20465692 L1.96668325,7.92655445 L1.15496018,7.92655445 C0.530318978,7.92655445 0,8.43539375 0,9.03308357 L0,18.0052355 C0,18.6036836 0.531110408,19.1117647 1.15496018,19.1117647 L13.6431167,19.1117647 C14.2677579,19.1117647 14.7980769,18.6029253 14.7980769,18.0052355 L14.7980769,9.03366683 C14.7980769,8.43446053 14.2677579,7.92637947 13.6431167,7.92637947 L13.6433197,7.92655445 Z M8.61672454,15.8225848 L6.15070984,15.8225848 L6.58747773,13.8182961 C6.18161619,13.5790607 5.90100353,13.1302198 5.90100353,12.6221582 C5.90100353,11.8444732 6.55657138,11.2163953 7.36829445,11.2163953 C8.18001752,11.2163953 8.83558537,11.8444732 8.83558537,12.6221582 C8.83558537,13.1309975 8.55497271,13.5494504 8.14911117,13.8182961 L8.61672454,15.8225848 Z M7.39913993,7.92655445 L3.90264278,7.92655445 L3.90264278,5.20465692 C3.90264278,3.35005315 5.4634645,1.85477875 7.39913993,1.85477875 C9.33481536,1.85477875 10.8956371,3.35015037 10.8956371,5.20465692 L10.8956371,7.92655445 L7.39913993,7.92655445 Z"/>
  </defs>
  <g fill="none" fill-rule="evenodd">
    <mask id="lock_ico-b" fill="#fff">
      <use xlink:href="#lock_ico-a"/>
    </mask>
    <use fill="#FFF" xlink:href="#lock_ico-a"/>
    <g fill="#FFF" mask="url(#lock_ico-b)">
      <path d="M0 0H14.85V18.81H0z"/>
    </g>
  </g>
</svg>
