<svg id="Calque_1" data-name="Calque 1" xmlns="http://www.w3.org/2000/svg" viewBox="0 0 95.96 65.98"><defs><style>.cls-1{fill:#fbfbfd;}</style></defs><path class="cls-1" d="M409.93,284.27c-12.32,0-24.64,0-37,0-7.61,0-11.23-3.68-11.25-11.35q0-21.73,0-43.46c0-7.36,3.69-11.1,11-11.11q37-.06,73.93,0c7.31,0,11,3.73,11,11.1q.06,21.73,0,43.46c0,7.69-3.63,11.34-11.23,11.37C434.24,284.29,422.09,284.27,409.93,284.27Zm40.89-52.35c2.77-1.39,1.65-3.6,1-5.54-.71-2.21-2.68-2.81-4.78-2.8-5.46,0-10.91.13-16.37.2q-29-.09-57.92-.16a7.73,7.73,0,0,0-3.36.73,4.33,4.33,0,0,0-1.49,1.2c-.89,1.15-.88,2.44-.85,4.38,0,1.21.16,1.43.25,1.54.53.62,1.53.44,3.42.38,1.08,0,2.16.06,3.24,0,2.82-.1,5.65,0,8.47,0Zm-20.17,10.52c-19.92-.06-39.84-.08-59.77-.24-2.81,0-3.86,1-3.82,3.7.12,7.79.12,15.6.17,23.4-.73,8.2.32,9.71,7,9.72,23.91,0,47.82,0,71.72,0,3.94,0,6.45-1.3,6.46-5.64,0-9.46-.06-18.93,0-28.39,0-2.21-.77-2.87-2.88-2.82C443.26,242.36,437,242.37,430.65,242.44Z" transform="translate(-361.7 -218.3)"/></svg>