<?xml version="1.0" encoding="UTF-8"?>
<svg viewBox="0 0 143 106" version="1.1" xmlns="http://www.w3.org/2000/svg" xmlns:xlink="http://www.w3.org/1999/xlink">
    <!-- Generator: sketchtool 51.2 (57519) - http://www.bohemiancoding.com/sketch -->
    <title>AB10ED78-27A6-4B19-82E2-B44BF870464B</title>
    <desc>Created with sketchtool.</desc>
    <defs></defs>
    <g id="Symbols" stroke="none" stroke-width="1" fill="none" fill-rule="evenodd">
        <g id="Desktop/Footer_Desk" transform="translate(-80.000000, -149.000000)">
            <g id="logo_Footer" transform="translate(80.000000, 149.000000)">
                <g id="Group" transform="translate(22.000000, 13.000000)" fill="#FFFFFF" fill-rule="nonzero">
                    <path d="M78.4643564,28.13 L96.4237624,28.13 L96.4237624,25.81 L77.2158416,25.81 L77.2158416,0.773333333 L69.6287129,0.773333333 L69.6287129,20.88 C69.6287129,26.5833333 72.6059406,28.13 78.4643564,28.13 Z" id="Shape"></path>
                    <path d="M24.6821782,28.13 L9.02772277,28.13 C3.07326733,28.13 0.192079208,26.5833333 0.192079208,20.88 L0.192079208,0.773333333 L7.77920792,0.773333333 L7.77920792,25.81 L22.4732673,25.81 C22.9534653,26.4866667 24.1059406,27.6466667 24.6821782,28.13 Z" id="Shape"></path>
                    <path d="M47.9237624,0.193333333 C33.3257426,0.193333333 24.8742574,6.28333333 24.8742574,15.08 C24.8742574,23.49 33.709901,28.71 46.3871287,28.71 C50.8049505,28.71 55.2227723,28.0333333 58.2960396,27.0666667 L58.2960396,24.1666667 C55.7990099,25.52 52.0534653,26.4866667 48.4039604,26.4866667 C38.5118812,26.4866667 32.9415842,20.3966667 32.9415842,14.5 C32.9415842,7.44333333 38.9920792,2.51333333 48.4039604,2.51333333 C51.6693069,2.51333333 55.4148515,3.28666667 58.1039604,4.64 L58.1039604,1.54666667 C54.7425743,0.58 50.4207921,0.193333333 47.9237624,0.193333333 Z" id="Shape"></path>
                </g>
                <path d="M67.7358491,74.7014925 C37.1358491,74.7014925 12.4056604,54.2064677 12.4056604,29.0186567 C12.4056604,18.0049751 17.1207547,7.94900498 25.0113208,0 C15.8698113,8.14054726 10,19.3457711 10,31.221393 C10,57.75 34.5377358,77 65.2339623,77 C84.3830189,77 101.992453,68.5721393 112,56.409204 C101.8,67.6144279 85.7301887,74.7014925 67.7358491,74.7014925 Z" id="Shape" fill="#FFFFFF" fill-rule="nonzero"></path>
                <g id="Group" transform="translate(45.000000, 47.000000)" fill="#FFFFFF" fill-rule="nonzero">
                    <path d="M3.05777778,3.1 C3.82222222,3.2 4.3,3.6 4.3,4.2 C4.3,4.8 3.91777778,5.2 3.15333333,5.3 C2.96222222,5.3 2.67555556,5.4 2.38888889,5.4 L0.191111111,5.4 L0.191111111,1.1 L2.00666667,1.1 C2.67555556,1.1 3.05777778,1.2 3.34444444,1.3 C3.72666667,1.5 3.82222222,1.8 3.82222222,2.2 C3.82222222,2.4 3.72666667,2.7 3.53555556,2.8 C3.44,2.9 3.24888889,3 3.05777778,3.1 Z M1.91111111,2.9 C2.67555556,2.9 3.05777778,2.7 3.05777778,2.2 C3.05777778,1.9 2.96222222,1.8 2.67555556,1.7 C2.48444444,1.7 2.29333333,1.6 1.91111111,1.6 L0.955555556,1.6 L0.955555556,2.9 L1.91111111,2.9 Z M1.05111111,3.3 L1.05111111,4.8 L2.29333333,4.8 C3.05777778,4.8 3.44,4.6 3.44,4.1 C3.44,3.6 3.05777778,3.3 2.19777778,3.3 L1.05111111,3.3 Z" id="Shape"></path>
                    <path d="M8.21777778,4.1 L5.73333333,4.1 L5.06444444,5.4 L4.3,5.4 L6.49777778,1.1 L7.45333333,1.1 L9.65111111,5.4 L8.79111111,5.4 L8.21777778,4.1 Z M7.93111111,3.6 L6.97555556,1.6 L6.02,3.6 L7.93111111,3.6 Z" id="Shape"></path>
                    <path d="M13.76,4.3 C13.76,4.3 13.8555556,4.4 13.8555556,4.5 C13.8555556,4.5 13.8555556,4.5 13.8555556,4.6 L13.8555556,1.1 L14.62,1.1 L14.62,5.4 L13.5688889,5.4 L10.9888889,2.1 C10.9888889,2.1 10.8933333,2 10.7977778,1.9 C10.7977778,1.9 10.7977778,1.9 10.7977778,1.9 C10.7977778,1.9 10.7977778,1.9 10.7977778,2 C10.7977778,2.1 10.7977778,2 10.7977778,2.1 L10.7977778,5.5 L10.0333333,5.5 L10.0333333,1.2 L11.0844444,1.2 L13.76,4.3 Z" id="Shape"></path>
                    <path d="M19.3977778,4.9 L20.8311111,4.8 L20.8311111,5.3 L17.8688889,5.3 C17.1044444,5.3 16.5311111,5.1 16.0533333,4.7 C15.5755556,4.3 15.3844444,3.8 15.3844444,3.1 C15.3844444,2.4 15.5755556,1.9 16.0533333,1.5 C16.5311111,1.1 17.1044444,0.9 17.8688889,0.9 C18.6333333,0.9 19.2066667,1.1 19.6844444,1.5 C20.1622222,1.9 20.3533333,2.4 20.3533333,3.1 C20.3533333,3.5 20.2577778,3.8 20.0666667,4.1 C19.9711111,4.5 19.6844444,4.7 19.3977778,4.9 Z M16.2444444,3.2 C16.2444444,4.4 16.8177778,5 17.8688889,5 C18.4422222,5 18.8244444,4.8 19.1111111,4.5 C19.3977778,4.2 19.4933333,3.8 19.4933333,3.2 C19.4933333,2 18.92,1.4 17.8688889,1.4 C16.8177778,1.4 16.2444444,2 16.2444444,3.2 Z" id="Shape"></path>
                    <path d="M23.5066667,5.4 C22.7422222,5.4 22.1688889,5.3 21.8822222,5 C21.5,4.7 21.4044444,4.3 21.4044444,3.6 L21.4044444,1 L22.2644444,1 L22.2644444,3.5 C22.2644444,4 22.36,4.4 22.5511111,4.6 C22.7422222,4.8 23.1244444,5 23.6022222,5 C24.08,5 24.4622222,4.9 24.6533333,4.6 C24.8444444,4.4 24.94,4 24.94,3.5 L24.94,1 L25.8,1 L25.8,3.6 C25.8,4.3 25.6088889,4.8 25.1311111,5 C24.7488889,5.3 24.1755556,5.4 23.5066667,5.4 Z" id="Shape"></path>
                    <polygon id="Shape" points="29.9088889 4.9 29.9088889 5.4 26.5644444 5.4 26.5644444 1.1 29.8133333 1.1 29.8133333 1.6 27.4244444 1.6 27.4244444 2.9 29.6222222 2.9 29.6222222 3.4 27.3288889 3.4 27.3288889 4.9"></polygon>
                    <polygon id="Shape" points="35.9288889 4.9 35.9288889 5.4 32.5844444 5.4 32.5844444 1.1 35.8333333 1.1 35.8333333 1.6 33.4444444 1.6 33.4444444 2.9 35.7377778 2.9 35.7377778 3.4 33.4444444 3.4 33.4444444 4.9"></polygon>
                    <polygon id="Shape" points="40.3244444 1.5 38.7 1.5 38.7 5.3 37.84 5.3 37.84 1.5 36.2155556 1.5 36.2155556 1 40.3244444 1 40.3244444 1.5"></polygon>
                    <path d="M46.2488889,4.1 L43.86,4.1 L43.1911111,5.4 L42.4266667,5.4 L44.6244444,1.1 L45.58,1.1 L47.7777778,5.4 L46.9177778,5.4 L46.2488889,4.1 Z M46.0577778,3.6 L45.1022222,1.6 L44.1466667,3.6 L46.0577778,3.6 Z" id="Shape"></path>
                    <path d="M50.0711111,1 C50.4533333,1 50.8355556,1 51.3133333,1.1 C51.4088889,1.1 51.6,1.2 51.6955556,1.2 L51.6955556,1.7 C51.1222222,1.5 50.5488889,1.4 50.1666667,1.4 C49.4022222,1.4 49.02,1.6 49.02,1.9 C49.02,2.1 49.2111111,2.3 49.4977778,2.4 C49.5933333,2.4 49.88,2.6 50.5488889,2.8 C51.0266667,3 51.3133333,3.2 51.6,3.3 C51.8866667,3.5 52.0777778,3.8 52.0777778,4.1 C52.0777778,4.7 51.6955556,5.1 50.8355556,5.3 C50.5488889,5.3 50.3577778,5.3 50.0711111,5.3 C49.5933333,5.3 49.1155556,5.2 48.5422222,5.1 C48.3511111,5.1 48.2555556,5 48.0644444,5 L48.0644444,4.4 C48.7333333,4.7 49.4022222,4.8 50.0711111,4.8 C50.5488889,4.8 50.9311111,4.7 51.1222222,4.5 C51.2177778,4.4 51.2177778,4.3 51.2177778,4.2 C51.2177778,4 51.0266667,3.8 50.74,3.6 C50.5488889,3.5 50.2622222,3.4 49.6888889,3.2 C49.2111111,3 48.9244444,2.9 48.6377778,2.7 C48.3511111,2.5 48.16,2.2 48.16,1.9 C48.16,1.5 48.4466667,1.2 48.9244444,1 C49.2111111,1 49.5933333,1 50.0711111,1 Z" id="Shape"></path>
                    <path d="M54.4666667,1 C54.8488889,1 55.2311111,1 55.7088889,1.1 C55.8044444,1.1 55.9955556,1.2 56.0911111,1.2 L56.0911111,1.7 C55.5177778,1.5 54.9444444,1.4 54.5622222,1.4 C53.7977778,1.4 53.4155556,1.6 53.4155556,1.9 C53.4155556,2.1 53.6066667,2.3 53.8933333,2.4 C53.9888889,2.4 54.2755556,2.6 54.9444444,2.8 C55.4222222,3 55.7088889,3.2 55.9955556,3.3 C56.2822222,3.5 56.4733333,3.8 56.4733333,4.1 C56.4733333,4.7 56.0911111,5.1 55.2311111,5.3 C54.9444444,5.3 54.7533333,5.3 54.4666667,5.3 C53.9888889,5.3 53.5111111,5.2 52.9377778,5.1 C52.7466667,5.1 52.6511111,5 52.46,5 L52.46,4.4 C53.1288889,4.7 53.7977778,4.8 54.4666667,4.8 C54.9444444,4.8 55.3266667,4.7 55.5177778,4.5 C55.6133333,4.4 55.6133333,4.3 55.6133333,4.2 C55.6133333,4 55.4222222,3.8 55.1355556,3.6 C54.9444444,3.5 54.6577778,3.4 54.0844444,3.2 C53.6066667,3 53.32,2.9 53.0333333,2.7 C52.7466667,2.5 52.5555556,2.2 52.5555556,1.9 C52.5555556,1.5 52.8422222,1.2 53.32,1 C53.6066667,1 53.9888889,1 54.4666667,1 Z" id="Shape"></path>
                    <path d="M59.1488889,5.4 C58.3844444,5.4 57.8111111,5.3 57.5244444,5 C57.1422222,4.7 57.0466667,4.3 57.0466667,3.6 L57.0466667,1 L57.9066667,1 L57.9066667,3.5 C57.9066667,4 58.0022222,4.4 58.1933333,4.6 C58.3844444,4.8 58.7666667,5 59.2444444,5 C59.7222222,5 60.1044444,4.9 60.2955556,4.6 C60.4866667,4.4 60.5822222,4 60.5822222,3.5 L60.5822222,1 L61.4422222,1 L61.4422222,3.6 C61.4422222,4.3 61.2511111,4.8 60.7733333,5 C60.3911111,5.3 59.9133333,5.4 59.1488889,5.4 Z" id="Shape"></path>
                    <path d="M65.0733333,3.3 C65.36,3.3 65.5511111,3.4 65.6466667,3.6 C65.7422222,3.8 65.9333333,3.9 66.0288889,4.2 L66.4111111,5.4 L65.5511111,5.4 L65.1688889,4.4 C65.0733333,4.1 64.8822222,3.8 64.6911111,3.7 C64.5,3.5 64.2133333,3.5 63.9266667,3.5 L63.0666667,3.5 L63.0666667,5.5 L62.2066667,5.5 L62.2066667,1.2 L64.3088889,1.2 C64.8822222,1.2 65.36,1.3 65.6466667,1.4 C66.0288889,1.6 66.1244444,1.9 66.1244444,2.3 C66.1244444,2.6 66.0288889,2.9 65.7422222,3.1 C65.6466667,3.1 65.36,3.3 65.0733333,3.3 Z M64.2133333,2.9 C64.9777778,2.9 65.36,2.7 65.36,2.2 C65.36,2 65.2644444,1.8 65.0733333,1.7 C64.8822222,1.6 64.5955556,1.6 64.2133333,1.6 L63.0666667,1.6 L63.0666667,3 L64.2133333,3 L64.2133333,2.9 Z" id="Shape"></path>
                    <path d="M70.3288889,4.1 L67.94,4.1 L67.2711111,5.4 L66.5066667,5.4 L68.7044444,1.1 L69.66,1.1 L71.8577778,5.4 L70.9977778,5.4 L70.3288889,4.1 Z M70.1377778,3.6 L69.1822222,1.6 L68.2266667,3.6 L70.1377778,3.6 Z" id="Shape"></path>
                    <path d="M75.8711111,4.3 C75.8711111,4.3 75.9666667,4.4 75.9666667,4.5 C75.9666667,4.5 75.9666667,4.5 75.9666667,4.6 L75.9666667,1.1 L76.7311111,1.1 L76.7311111,5.4 L75.68,5.4 L73.1,2.1 C73.1,2.1 73.0044444,2 72.9088889,1.9 C72.9088889,1.9 72.9088889,1.9 72.9088889,1.9 C72.9088889,1.9 72.9088889,1.9 72.9088889,2 C72.9088889,2.1 72.9088889,2 72.9088889,2.1 L72.9088889,5.5 L72.1444444,5.5 L72.1444444,1.2 L73.1955556,1.2 L75.8711111,4.3 Z" id="Shape"></path>
                    <path d="M81.7,1.7 C81.4133333,1.5 80.9355556,1.4 80.3622222,1.4 C79.6933333,1.4 79.2155556,1.6 78.9288889,1.9 C78.6422222,2.2 78.4511111,2.7 78.4511111,3.2 C78.4511111,3.7 78.6422222,4.2 78.9288889,4.5 C79.3111111,4.8 79.6933333,5 80.2666667,5 C80.6488889,5 81.0311111,4.9 81.4133333,4.8 C81.5088889,4.8 81.6044444,4.7 81.7,4.7 L81.7,5.2 C81.2222222,5.4 80.6488889,5.5 80.0755556,5.5 C79.3111111,5.5 78.6422222,5.3 78.1644444,4.9 C77.6866667,4.5 77.4,4 77.4,3.3 C77.4,2.8 77.5911111,2.3 77.8777778,1.9 C78.1644444,1.5 78.5466667,1.3 79.0244444,1.1 C79.4066667,1 79.7888889,0.9 80.1711111,0.9 C80.7444444,0.9 81.2222222,1 81.6044444,1.1 L81.6044444,1.7 L81.7,1.7 Z" id="Shape"></path>
                    <polygon id="Shape" points="85.8088889 4.9 85.8088889 5.4 82.4644444 5.4 82.4644444 1.1 85.7133333 1.1 85.7133333 1.6 83.3244444 1.6 83.3244444 2.9 85.6177778 2.9 85.6177778 3.4 83.3244444 3.4 83.3244444 4.9"></polygon>
                </g>
                <path d="M8.75446706,103.943802 L8.75446706,96.2707449 L6.92499138,96.2707449 L4.37704381,102.125604 L1.79570542,96.2707449 L0,96.2707449 L0,103.943802 L1.31324595,103.943802 L1.31324595,98.3159666 L3.77126595,103.943802 L4.93842704,103.943802 L7.41883408,98.2947461 L7.41883408,103.943802 L8.75446706,103.943802 Z M10.067713,102.515257 C10.067713,103.348529 10.7748017,104.106249 11.9195757,104.106249 C12.8063298,104.106249 13.3449465,103.673423 13.6031563,103.272794 C13.6031563,103.69501 13.64812,103.911423 13.6593136,103.943802 L14.8714384,103.943802 C14.8604346,103.889836 14.8040876,103.575918 14.8040876,103.099737 L14.8040876,100.480645 C14.8040876,99.4307771 14.1645395,98.5111591 12.480959,98.5111591 C11.1339427,98.5111591 10.280959,99.322845 10.1800276,100.231853 L11.3697654,100.491256 C11.425733,99.9611079 11.8072611,99.539258 12.4919627,99.539258 C13.2102449,99.539258 13.5246119,99.8963486 13.5246119,100.339968 C13.5246119,100.524001 13.4348741,100.675472 13.1205071,100.718828 L11.717713,100.924448 C10.7859952,101.054149 10.067713,101.573687 10.067713,102.515257 Z M12.1665919,103.121506 C11.6501725,103.121506 11.3697654,102.796612 11.3697654,102.439521 C11.3697654,102.006695 11.6951363,101.790282 12.0990514,101.725157 L13.5246119,101.51972 L13.5246119,101.757537 C13.5246119,102.786002 12.8958779,103.121506 12.1665919,103.121506 Z M23.872732,98.6732402 L22.5035185,98.6732402 L21.0893412,102.439521 L19.6413936,98.6732402 L18.2046395,98.6732402 L20.4270266,103.943802 L21.7288893,103.943802 L23.872732,98.6732402 Z M24.7145222,103.943802 L26.0051914,103.943802 L26.0051914,98.6732402 L24.7145222,98.6732402 L24.7145222,103.943802 Z M24.5122801,96.8226621 C24.5122801,97.2772574 24.8939979,97.634348 25.3540704,97.634348 C25.8253363,97.634348 26.2072439,97.2772574 26.2072439,96.8226621 C26.2072439,96.3682497 25.8253363,96 25.3540704,96 C24.8939979,96 24.5122801,96.3682497 24.5122801,96.8226621 Z M28.4855985,100.729438 C28.5305623,100.166911 29.0020179,99.5608444 29.8212315,99.5608444 C30.719179,99.5608444 31.1454812,100.112762 31.168058,100.729438 L28.4855985,100.729438 Z M31.3139531,102.104017 C31.1344774,102.623555 30.7301828,103.023818 29.9447396,103.023818 C29.1365298,103.023818 28.4855985,102.450132 28.4518282,101.649422 L32.4477234,101.649422 C32.4587271,101.627836 32.4811142,101.454778 32.4811142,101.248976 C32.4811142,99.5822479 31.4934288,98.5111591 29.8098482,98.5111591 C28.4296309,98.5111591 27.1499655,99.6149934 27.1499655,101.281721 C27.1499655,103.067174 28.4632115,104.106249 29.9447396,104.106249 C31.2579855,104.106249 32.1221628,103.359505 32.4137634,102.439521 L31.3139531,102.104017 Z M33.3790617,103.132116 C33.3790617,103.619091 33.7833563,104.008744 34.2882028,104.008744 C34.7934288,104.008744 35.2085374,103.619091 35.2085374,103.132116 C35.2085374,102.645324 34.7934288,102.244695 34.2882028,102.244695 C33.7833563,102.244695 33.3790617,102.645324 33.3790617,103.132116 Z M48.2165402,103.943802 L48.2165402,96.2707449 L46.3872542,96.2707449 L43.8394964,102.125604 L41.2579683,96.2707449 L39.4620731,96.2707449 L39.4620731,103.943802 L40.7753191,103.943802 L40.7753191,98.3159666 L43.2331494,103.943802 L44.4005002,103.943802 L46.8810969,98.2947461 L46.8810969,103.943802 L48.2165402,103.943802 Z M49.5299759,102.515257 C49.5299759,103.348529 50.2368748,104.106249 51.3816488,104.106249 C52.2684029,104.106249 52.8072094,103.673423 53.0652294,103.272794 C53.0652294,103.69501 53.1101932,103.911423 53.1215764,103.943802 L54.3337013,103.943802 C54.322318,103.889836 54.2663505,103.575918 54.2663505,103.099737 L54.2663505,100.480645 C54.2663505,99.4307771 53.6266126,98.5111591 51.9430321,98.5111591 C50.5962056,98.5111591 49.7430321,99.322845 49.6421007,100.231853 L50.8318386,100.491256 C50.8881856,99.9611079 51.269524,99.539258 51.9544153,99.539258 C52.6726975,99.539258 52.9866851,99.8963486 52.9866851,100.339968 C52.9866851,100.524001 52.8971369,100.675472 52.5827699,100.718828 L51.1795964,100.924448 C50.248258,101.054149 49.5299759,101.573687 49.5299759,102.515257 Z M51.6286651,103.121506 C51.112625,103.121506 50.8318386,102.796612 50.8318386,102.439521 C50.8318386,102.006695 51.1572094,101.790282 51.561504,101.725157 L52.9866851,101.51972 L52.9866851,101.757537 C52.9866851,102.786002 52.3583305,103.121506 51.6286651,103.121506 Z M63.3348051,98.6732402 L61.9655916,98.6732402 L60.5514143,102.439521 L59.1036564,98.6732402 L57.6670921,98.6732402 L59.8890997,103.943802 L61.1911521,103.943802 L63.3348051,98.6732402 Z M64.1765954,103.943802 L65.4672646,103.943802 L65.4672646,98.6732402 L64.1765954,98.6732402 L64.1765954,103.943802 Z M63.9745429,96.8226621 C63.9745429,97.2772574 64.3560711,97.634348 64.8163332,97.634348 C65.2877889,97.634348 65.6691273,97.2772574 65.6691273,96.8226621 C65.6691273,96.3682497 65.2877889,96 64.8163332,96 C64.3560711,96 63.9745429,96.3682497 63.9745429,96.8226621 Z M67.0385305,103.943802 L68.340583,103.943802 L68.340583,96.1084809 L67.0385305,96.1084809 L67.0385305,103.943802 Z M69.9118489,103.943802 L71.2139013,103.943802 L71.2139013,96.1084809 L69.9118489,96.1084809 L69.9118489,103.943802 Z M73.6943084,100.729438 C73.7388927,100.166911 74.2101587,99.5608444 75.0299414,99.5608444 C75.9276992,99.5608444 76.3541911,100.112762 76.3765781,100.729438 L73.6943084,100.729438 Z M76.5224733,102.104017 C76.3429976,102.623555 75.938703,103.023818 75.1532597,103.023818 C74.34505,103.023818 73.6943084,102.450132 73.6603484,101.649422 L77.6562435,101.649422 C77.6672473,101.627836 77.6898241,101.454778 77.6898241,101.248976 C77.6898241,99.5822479 76.7019489,98.5111591 75.0183684,98.5111591 C73.6377716,98.5111591 72.3584857,99.6149934 72.3584857,101.281721 C72.3584857,103.067174 73.6717316,104.106249 75.1532597,104.106249 C76.4665057,104.106249 77.3304933,103.359505 77.6222835,102.439521 L76.5224733,102.104017 Z M78.5875819,103.132116 C78.5875819,103.619091 78.9918765,104.008744 79.496723,104.008744 C80.0017592,104.008744 80.4170576,103.619091 80.4170576,103.132116 C80.4170576,102.645324 80.0017592,102.244695 79.496723,102.244695 C78.9918765,102.244695 78.5875819,102.645324 78.5875819,103.132116 Z M93.4250604,103.943802 L93.4250604,96.2707449 L91.5955847,96.2707449 L89.0480166,102.125604 L86.4662987,96.2707449 L84.6705933,96.2707449 L84.6705933,103.943802 L85.9838393,103.943802 L85.9838393,98.3159666 L88.4418593,103.943802 L89.6090204,103.943802 L92.0894274,98.2947461 L92.0894274,103.943802 L93.4250604,103.943802 Z M94.738496,102.515257 C94.738496,103.348529 95.445395,104.106249 96.590169,104.106249 C97.4769231,104.106249 98.0157296,103.673423 98.2737496,103.272794 C98.2737496,103.69501 98.3187133,103.911423 98.3299069,103.943802 L99.5420317,103.943802 C99.5310279,103.889836 99.4748706,103.575918 99.4748706,103.099737 L99.4748706,100.480645 C99.4748706,99.4307771 98.8351328,98.5111591 97.1515523,98.5111591 C95.8047258,98.5111591 94.9515523,99.322845 94.8506209,100.231853 L96.0403587,100.491256 C96.0963263,99.9611079 96.4782339,99.539258 97.1625561,99.539258 C97.8808382,99.539258 98.1952052,99.8963486 98.1952052,100.339968 C98.1952052,100.524001 98.1054674,100.675472 97.7912901,100.718828 L96.3883063,100.924448 C95.4569679,101.054149 94.738496,101.573687 94.738496,102.515257 Z M96.8371852,103.121506 C96.3207658,103.121506 96.0403587,102.796612 96.0403587,102.439521 C96.0403587,102.006695 96.3657296,101.790282 96.7700241,101.725157 L98.1952052,101.51972 L98.1952052,101.757537 C98.1952052,102.786002 97.5668506,103.121506 96.8371852,103.121506 Z M104.87318,103.943802 L104.87318,103.240414 C105.187547,103.748976 105.782511,104.073504 106.556761,104.073504 C108.150414,104.073504 109.127096,102.872347 109.127096,101.281721 C109.127096,99.7339017 108.240341,98.5325626 106.601725,98.5325626 C105.759934,98.5325626 105.1312,98.9112396 104.884374,99.322845 L104.884374,96.1084809 L103.605088,96.1084809 L103.605088,103.943802 L104.87318,103.943802 Z M107.814039,101.292331 C107.814039,102.331406 107.196689,102.959059 106.343325,102.959059 C105.513108,102.959059 104.87318,102.331406 104.87318,101.292331 C104.87318,100.242463 105.513108,99.647373 106.343325,99.647373 C107.207692,99.647373 107.814039,100.242463 107.814039,101.292331 Z M109.934926,102.515257 C109.934926,103.348529 110.642014,104.106249 111.786978,104.106249 C112.673353,104.106249 113.212349,103.673423 113.470559,103.272794 C113.470559,103.69501 113.515143,103.911423 113.526716,103.943802 L114.738841,103.943802 C114.727458,103.889836 114.6713,103.575918 114.6713,103.099737 L114.6713,100.480645 C114.6713,99.4307771 114.031563,98.5111591 112.347982,98.5111591 C111.001345,98.5111591 110.148362,99.322845 110.047051,100.231853 L111.237168,100.491256 C111.293136,99.9611079 111.674664,99.539258 112.359365,99.539258 C113.077647,99.539258 113.391825,99.8963486 113.391825,100.339968 C113.391825,100.524001 113.302087,100.675472 112.98772,100.718828 L111.585116,100.924448 C110.653398,101.054149 109.934926,101.573687 109.934926,102.515257 Z M112.033994,103.121506 C111.517575,103.121506 111.237168,102.796612 111.237168,102.439521 C111.237168,102.006695 111.562539,101.790282 111.966454,101.725157 L113.391825,101.51972 L113.391825,101.757537 C113.391825,102.786002 112.76328,103.121506 112.033994,103.121506 Z M117.432684,100.902861 C117.432684,100.210266 117.825216,99.6583492 118.565885,99.6583492 C119.385288,99.6583492 119.688651,100.177521 119.688651,100.827126 L119.688651,103.943802 L120.990324,103.943802 L120.990324,100.610347 C120.990324,99.4525465 120.350586,98.5217694 119.014764,98.5217694 C118.408986,98.5217694 117.758055,98.770562 117.398724,99.3768111 L117.398724,98.6732402 L116.130442,98.6732402 L116.130442,103.943802 L117.432684,103.943802 L117.432684,100.902861 Z M127.544791,106 L127.544791,98.6732402 L126.299086,98.6732402 L126.299086,99.3768111 C126.108227,98.9979511 125.580804,98.5435387 124.626889,98.5435387 C123.032856,98.5435387 122.034167,99.7772574 122.034167,101.292331 C122.034167,102.861737 123.100397,104.073504 124.660469,104.073504 C125.423715,104.073504 125.996102,103.781355 126.265505,103.31615 L126.265505,106 L127.544791,106 Z M123.347223,101.292331 C123.347223,100.285819 123.942187,99.6583492 124.806364,99.6583492 C125.659158,99.6583492 126.276509,100.285819 126.276509,101.292331 C126.276509,102.298844 125.659158,102.969669 124.806364,102.969669 C123.953191,102.969669 123.347223,102.298844 123.347223,101.292331 Z M132.595533,103.359505 C132.595533,103.575918 132.61792,103.824711 132.640497,103.943802 L133.886202,103.943802 C133.863815,103.748976 133.830235,103.413654 133.830235,102.980645 L133.830235,98.6732402 L132.527992,98.6732402 L132.527992,101.790282 C132.527992,102.482877 132.135271,102.969669 131.383218,102.969669 C130.597585,102.969669 130.283598,102.417752 130.283598,101.768513 L130.283598,98.6732402 L128.981356,98.6732402 L128.981356,101.995719 C128.981356,103.164496 129.744791,104.095273 131.046464,104.095273 C131.686202,104.095273 132.32613,103.835504 132.595533,103.359505 Z M136.277061,100.729438 C136.321645,100.166911 136.793291,99.5608444 137.612694,99.5608444 C138.510452,99.5608444 138.936944,100.112762 138.959331,100.729438 L136.277061,100.729438 Z M139.105416,102.104017 C138.92594,102.623555 138.521645,103.023818 137.736202,103.023818 C136.927992,103.023818 136.277061,102.450132 136.243101,101.649422 L140.238996,101.649422 C140.25019,101.627836 140.272577,101.454778 140.272577,101.248976 C140.272577,99.5822479 139.284891,98.5111591 137.601311,98.5111591 C136.220714,98.5111591 134.941428,99.6149934 134.941428,101.281721 C134.941428,103.067174 136.254484,104.106249 137.736202,104.106249 C139.049258,104.106249 139.913246,103.359505 140.205226,102.439521 L139.105416,102.104017 Z M141.170335,103.132116 C141.170335,103.619091 141.574629,104.008744 142.079665,104.008744 C142.584512,104.008744 143,103.619091 143,103.132116 C143,102.645324 142.584512,102.244695 142.079665,102.244695 C141.574629,102.244695 141.170335,102.645324 141.170335,103.132116 Z" id="Fill-1" fill="#FEFEFE"></path>
            </g>
        </g>
    </g>
</svg>