<svg xmlns="http://www.w3.org/2000/svg" viewBox="0 0 51 51">
  <g fill="none" fill-rule="evenodd">
    <rect width="51" height="51" fill="#2C2D31" rx="2"/>
    <path fill="#FEFEFE" d="M23.3214985,29.4226424 C25.1825687,28.4008946 27.0165096,27.3937301 28.8730583,26.3747166 C27.0128924,25.3939844 25.1762385,24.4260128 23.3214985,23.4471036 L23.3214985,29.4226424 Z M25.5795609,34 C23.5267769,33.9434894 21.3238775,33.8888017 19.1218824,33.8167963 C18.4554058,33.7958327 17.788025,33.7356763 17.1459648,33.531509 C16.397196,33.2927062 15.8763134,32.805986 15.5769868,32.0649681 C15.2559567,31.2729084 15.1808989,30.4389215 15.1094584,29.5994659 C14.9819507,28.1219875 14.9846636,26.6408632 15.023549,25.1624733 C15.0506783,24.1106472 15.1393007,23.0579097 15.2631911,22.0124638 C15.3391532,21.3744411 15.5381014,20.7482673 15.9504668,20.2305574 C16.4026219,19.6627171 17.0012752,19.3172734 17.7174888,19.257117 C18.797235,19.1650594 19.8805986,19.0875852 20.9648664,19.0647987 C23.0493012,19.0192256 25.1364489,18.9946162 27.221788,19.0009964 C28.6677799,19.0055537 30.1137717,19.0702674 31.5588593,19.1231322 C32.1484695,19.1459187 32.7398883,19.1732625 33.322264,19.2616743 C34.3151965,19.4111539 35.0404532,19.9434472 35.4311152,20.9050386 C35.7503366,21.6916295 35.8217771,22.5210591 35.8923133,23.3541345 C36.0125866,24.7760138 36.0171081,26.201539 35.9782228,27.6234183 C35.9474762,28.7253747 35.8543323,29.8282426 35.736772,30.9247303 C35.6933651,31.3458253 35.5423453,31.7669203 35.3750479,32.1606715 C34.9943334,33.0611951 34.2745025,33.5597643 33.3294985,33.6882803 C32.6205194,33.7839837 31.9015928,33.8259109 31.1853792,33.8496089 C29.3677159,33.9115883 27.548244,33.9498696 25.5795609,34 L25.5795609,34 Z"/>
  </g>
</svg>
