<?xml version="1.0" encoding="UTF-8"?>
<svg viewBox="0 0 51 51" version="1.1" xmlns="http://www.w3.org/2000/svg" xmlns:xlink="http://www.w3.org/1999/xlink">
    <!-- Generator: sketchtool 51.2 (57519) - http://www.bohemiancoding.com/sketch -->
    <title>5558447D-EA51-4F6D-9869-A54D3B58F2DE</title>
    <desc>Created with sketchtool.</desc>
    <defs>
        <polygon id="path-1" points="14 14 38 14 38 37.9702655 14 37.9702655"></polygon>
    </defs>
    <g id="Symbols" stroke="none" stroke-width="1" fill="none" fill-rule="evenodd">
        <g id="Desktop/Footer_Desk" transform="translate(-853.000000, -40.000000)">
            <g id="Footer">
                <g id="ico_reseaux" transform="translate(536.000000, 40.000000)">
                    <g id="Messenger" transform="translate(317.000000, 0.000000)">
                        <rect id="Rectangle-19" fill="#2C2D31" x="0" y="0" width="51" height="51" rx="2"></rect>
                        <mask id="mask-2" fill="white">
                            <use xlink:href="#path-1"></use>
                        </mask>
                        <g id="Clip-2"></g>
                        <path d="M27.0116071,28.3896863 L24.4472321,25.7173489 L19.5391964,28.3896863 L24.9321429,22.7231969 L27.5205357,25.3487507 L32.3741071,22.7231969 L27.0116071,28.3896863 Z M26,16 C20.4771429,16 16,20.14549 16,25.2592593 C16,28.1548822 17.4355357,30.7403863 19.6834821,32.4380649 L19.6834821,36 L23.0396429,34.1065036 C23.9751786,34.3740918 24.9696429,34.5185185 26,34.5185185 C31.5232143,34.5185185 36,30.3726741 36,25.2592593 C36,20.14549 31.5232143,16 26,16 Z" id="ico-messenger" fill="#FFFFFF" mask="url(#mask-2)"></path>
                    </g>
                </g>
            </g>
        </g>
    </g>
</svg>