<?xml version="1.0" encoding="UTF-8"?>
<svg viewBox="0 0 136 55" version="1.1" xmlns="http://www.w3.org/2000/svg" xmlns:xlink="http://www.w3.org/1999/xlink">
    <!-- Generator: sketchtool 51.1 (57501) - http://www.bohemiancoding.com/sketch -->
    <title>FB818D6A-EDCC-474F-9CE5-B81B8135A6D6</title>
    <desc>Created with sketchtool.</desc>
    <defs>
        <polygon id="path-1" points="3.86966745e-05 0.00164684289 44.3035239 0.00164684289 44.3035239 34 3.86966745e-05 34"></polygon>
    </defs>
    <g id="Symbols" stroke="none" stroke-width="1" fill="none" fill-rule="evenodd">
        <g id="Mobile/header/nav-univers" transform="translate(-92.000000, -18.000000)">
            <g id="Logo_signature" transform="translate(92.000000, 18.000000)">
                <g id="Logo/Logo_griffe" transform="translate(44.000000, 0.000000)">
                    <path d="M40.1625436,17.7657658 L48,17.7657658 L48,16.7507697 L39.6361937,16.7507697 L39.6361937,5.81981982 L36.3076923,5.81981982 L36.3076923,14.5981333 C36.3076923,17.0829309 37.5773723,17.7657658 40.1625436,17.7657658" id="Fill-1" fill="#FEFEFE"></path>
                    <path d="M26.8112591,5.81981982 C20.3613382,5.81981982 16.6153846,8.49100714 16.6153846,12.3712951 C16.6153846,16.0845791 20.5010648,18.3783784 26.1245526,18.3783784 C28.056872,18.3783784 30.029141,18.1014651 31.3846154,17.6565752 L31.3846154,16.3702462 C30.2781473,16.9645351 28.6104455,17.3711998 27.0156614,17.3711998 C22.6457377,17.3711998 20.1757471,14.7044867 20.1757471,12.102552 C20.1757471,8.98277873 22.8504309,6.81522932 26.9863779,6.81522932 C28.4199091,6.81522932 30.0669574,7.16158981 31.2881352,7.76803677 L31.2881352,6.41556764 C29.8271628,6.00617946 27.940417,5.81981982 26.8112591,5.81981982" id="Fill-5" fill="#FEFEFE"></path>
                    <path d="M16.6153846,17.7657658 L9.72427259,17.7657658 C7.12330352,17.7657658 5.84615385,17.0829309 5.84615385,14.5981333 L5.84615385,5.81981982 L9.19518839,5.81981982 L9.19518839,16.7507697 L15.6314635,16.7507697 C15.8632693,17.0433994 16.3685365,17.5765929 16.6153846,17.7657658" id="Fill-3" fill="#FEFEFE"></path>
                    <g id="Group-9" stroke-width="1">
                        <mask id="mask-2" fill="white">
                            <use xlink:href="#path-1"></use>
                        </mask>
                        <g id="Clip-8"></g>
                        <path d="M44.2968959,25.5220952 C44.2613917,25.4695059 44.1782906,25.5653416 44.1782906,25.5653416 C39.7144357,30.0669224 33.0133326,32.9584635 25.4157243,32.9584635 C11.9716289,32.9584635 1.07300074,23.962911 1.07300074,12.8660045 C1.07300074,8.07248612 3.10728492,3.70574958 6.50204743,0.252197167 C6.50204743,0.252197167 6.60062721,0.155109348 6.60207833,0.0768033994 C6.60459362,-0.0657461756 6.50204743,0.0382764873 6.50204743,0.0382764873 C2.55266483,3.60866176 3.86966745e-05,8.65424249 3.86966745e-05,13.8562425 C3.86966745e-05,25.5396249 10.7795778,34.0000385 24.2790095,34.0000385 C32.3662275,34.0000385 39.7424908,30.6775739 44.2155362,25.6893983 C44.2155362,25.6893983 44.3321099,25.5749734 44.2968959,25.5220952" id="Fill-7" fill="#FEFEFE" mask="url(#mask-2)"></path>
                    </g>
                </g>
                <path d="M8.32592671,52.9438021 L8.32592671,45.2707449 L6.58600578,45.2707449 L4.16278292,51.1256037 L1.70780375,45.2707449 L0,45.2707449 L0,52.9438021 L1.24896118,52.9438021 L1.24896118,47.3159666 L3.58665853,52.9438021 L4.69668586,52.9438021 L7.05567437,47.2947461 L7.05567437,52.9438021 L8.32592671,52.9438021 Z M9.57488789,51.5152568 C9.57488789,52.3485292 10.2473638,53.1062491 11.3361,53.1062491 C12.1794465,53.1062491 12.6916974,52.6734231 12.9372675,52.2727938 C12.9372675,52.6950095 12.9800302,52.9114225 12.9906758,52.9438021 L14.1434659,52.9438021 C14.1330008,52.8898361 14.079412,52.5759183 14.079412,52.0997366 L14.079412,49.4806454 C14.079412,48.4307771 13.4711704,47.5111591 11.8700029,47.5111591 C10.5889246,47.5111591 9.77769523,48.322845 9.68170457,49.2318528 L10.8132035,49.4912557 C10.8664314,48.9611079 11.2292833,48.539258 11.8804681,48.539258 C12.5635896,48.539258 12.862568,48.8963486 12.862568,49.3399678 C12.862568,49.5240012 12.7772229,49.675472 12.4782445,49.7188277 L11.1441187,49.9244475 C10.2580094,50.054149 9.57488789,50.5736865 9.57488789,51.5152568 Z M11.5710245,52.1215059 C11.0798843,52.1215059 10.8132035,51.796612 10.8132035,51.4395214 C10.8132035,51.0066954 11.1226471,50.7902825 11.5067901,50.7251573 L12.862568,50.5197205 L12.862568,50.757537 C12.862568,51.7860018 12.2646111,52.1215059 11.5710245,52.1215059 Z M22.7041367,47.6732402 L21.4019476,47.6732402 L20.0569958,51.4395214 L18.6799268,47.6732402 L17.3135033,47.6732402 L19.4271022,52.9438021 L20.6652373,52.9438021 L22.7041367,47.6732402 Z M23.5047205,52.9438021 L24.73221,52.9438021 L24.73221,47.6732402 L23.5047205,47.6732402 L23.5047205,52.9438021 Z M23.3123783,45.8226621 C23.3123783,46.2772574 23.6754106,46.634348 24.112962,46.634348 C24.561159,46.634348 24.9243718,46.2772574 24.9243718,45.8226621 C24.9243718,45.3682497 24.561159,45 24.112962,45 C23.6754106,45 23.3123783,45.3682497 23.3123783,45.8226621 Z M27.0911986,49.729438 C27.1339613,49.1669106 27.5823387,48.5608444 28.3614509,48.5608444 C29.215443,48.5608444 29.6208772,49.1127616 29.6423488,49.729438 L27.0911986,49.729438 Z M29.7811022,51.1040173 C29.6104121,51.6235548 29.2259081,52.0238182 28.4789132,52.0238182 C27.7102661,52.0238182 27.0911986,51.4501317 27.0590814,50.6494219 L30.8593733,50.6494219 C30.8698384,50.6278355 30.8911296,50.4547783 30.8911296,50.2489756 C30.8911296,48.5822479 29.9517924,47.5111591 28.3506249,47.5111591 C27.0379707,47.5111591 25.8209462,48.6149934 25.8209462,50.2817211 C25.8209462,52.067174 27.0699074,53.1062491 28.4789132,53.1062491 C29.7278743,53.1062491 30.5497493,52.3595053 30.8270756,51.4395214 L29.7811022,51.1040173 Z M31.7451217,52.1321162 C31.7451217,52.6190912 32.1296256,53.0087443 32.6097593,53.0087443 C33.0902539,53.0087443 33.4850426,52.6190912 33.4850426,52.1321162 C33.4850426,51.6453242 33.0902539,51.2446949 32.6097593,51.2446949 C32.1296256,51.2446949 31.7451217,51.6453242 31.7451217,52.1321162 Z M45.85629,52.9438021 L45.85629,45.2707449 L44.1165495,45.2707449 L41.693507,51.1256037 L39.2383474,45.2707449 L37.5303633,45.2707449 L37.5303633,52.9438021 L38.7793244,52.9438021 L38.7793244,47.3159666 L41.1168414,52.9438021 L42.2270491,52.9438021 L44.5862181,47.2947461 L44.5862181,52.9438021 L45.85629,52.9438021 Z M47.1054316,51.5152568 C47.1054316,52.3485292 47.7777271,53.1062491 48.8664632,53.1062491 C49.7098097,53.1062491 50.2222411,52.6734231 50.4676307,52.2727938 C50.4676307,52.6950095 50.5103935,52.9114225 50.5212195,52.9438021 L51.6740096,52.9438021 C51.6631836,52.8898361 51.6099557,52.5759183 51.6099557,52.0997366 L51.6099557,49.4806454 C51.6099557,48.4307771 51.0015337,47.5111591 49.4003662,47.5111591 C48.1194683,47.5111591 47.3080585,48.322845 47.2120678,49.2318528 L48.3435667,49.4912557 C48.3971555,48.9611079 48.759827,48.539258 49.4111922,48.539258 C50.0943137,48.539258 50.3929312,48.8963486 50.3929312,49.3399678 C50.3929312,49.5240012 50.3077666,49.675472 50.0087882,49.7188277 L48.6743015,49.9244475 C47.7885531,50.054149 47.1054316,50.5736865 47.1054316,51.5152568 Z M49.1013877,52.1215059 C48.6106084,52.1215059 48.3435667,51.796612 48.3435667,51.4395214 C48.3435667,51.0066954 48.6530103,50.7902825 49.0375143,50.7251573 L50.3929312,50.5197205 L50.3929312,50.757537 C50.3929312,51.7860018 49.7953353,52.1215059 49.1013877,52.1215059 Z M60.2345,47.6732402 L58.9323109,47.6732402 L57.587359,51.4395214 L56.2104705,47.6732402 L54.8442275,47.6732402 L56.9574654,52.9438021 L58.195781,52.9438021 L60.2345,47.6732402 Z M61.0350837,52.9438021 L62.2625733,52.9438021 L62.2625733,47.6732402 L61.0350837,47.6732402 L61.0350837,52.9438021 Z M60.842922,45.8226621 C60.842922,46.2772574 61.2057739,46.634348 61.6435057,46.634348 C62.0918831,46.634348 62.4545546,46.2772574 62.4545546,45.8226621 C62.4545546,45.3682497 62.0918831,45 61.6435057,45 C61.2057739,45 60.842922,45.3682497 60.842922,45.8226621 Z M63.7569241,52.9438021 L64.9952397,52.9438021 L64.9952397,45.1084809 L63.7569241,45.1084809 L63.7569241,52.9438021 Z M66.4895906,52.9438021 L67.7279062,52.9438021 L67.7279062,45.1084809 L66.4895906,45.1084809 L66.4895906,52.9438021 Z M70.0868947,49.729438 C70.1292966,49.1669106 70.5774936,48.5608444 71.357147,48.5608444 C72.2109587,48.5608444 72.6165734,49.1127616 72.6378645,49.729438 L70.0868947,49.729438 Z M72.7766179,51.1040173 C72.6059278,51.6235548 72.2214238,52.0238182 71.4744288,52.0238182 C70.7057818,52.0238182 70.0868947,51.4501317 70.0545971,50.6494219 L73.854889,50.6494219 C73.8653541,50.6278355 73.8868257,50.4547783 73.8868257,50.2489756 C73.8868257,48.5822479 72.9473081,47.5111591 71.3461406,47.5111591 C70.0331255,47.5111591 68.8164619,48.6149934 68.8164619,50.2817211 C68.8164619,52.067174 70.0654231,53.1062491 71.4744288,53.1062491 C72.72339,53.1062491 73.5450845,52.3595053 73.8225913,51.4395214 L72.7766179,51.1040173 Z M74.7406374,52.1321162 C74.7406374,52.6190912 75.1251413,53.0087443 75.605275,53.0087443 C76.0855892,53.0087443 76.4805583,52.6190912 76.4805583,52.1321162 C76.4805583,51.6453242 76.0855892,51.2446949 75.605275,51.2446949 C75.1251413,51.2446949 74.7406374,51.6453242 74.7406374,52.1321162 Z M88.8518057,52.9438021 L88.8518057,45.2707449 L87.1118847,45.2707449 L84.6890227,51.1256037 L82.2336827,45.2707449 L80.525879,45.2707449 L80.525879,52.9438021 L81.7748401,52.9438021 L81.7748401,47.3159666 L84.1125375,52.9438021 L85.2225648,52.9438021 L87.5815533,47.2947461 L87.5815533,52.9438021 L88.8518057,52.9438021 Z M90.1009473,51.5152568 C90.1009473,52.3485292 90.7732428,53.1062491 91.8619789,53.1062491 C92.7053254,53.1062491 93.2177568,52.6734231 93.4631464,52.2727938 C93.4631464,52.6950095 93.5059092,52.9114225 93.5165548,52.9438021 L94.6693449,52.9438021 C94.6588797,52.8898361 94.6054714,52.5759183 94.6054714,52.0997366 L94.6054714,49.4806454 C94.6054714,48.4307771 93.9970494,47.5111591 92.3958819,47.5111591 C91.1149839,47.5111591 90.3035742,48.322845 90.2075835,49.2318528 L91.3390824,49.4912557 C91.3923103,48.9611079 91.7555231,48.539258 92.406347,48.539258 C93.0894685,48.539258 93.3884469,48.8963486 93.3884469,49.3399678 C93.3884469,49.5240012 93.3031019,49.675472 93.0043039,49.7188277 L91.6699976,49.9244475 C90.7842492,50.054149 90.1009473,50.5736865 90.1009473,51.5152568 Z M92.0969034,52.1215059 C91.6057633,52.1215059 91.3390824,51.796612 91.3390824,51.4395214 C91.3390824,51.0066954 91.648526,50.7902825 92.03303,50.7251573 L93.3884469,50.5197205 L93.3884469,50.757537 C93.3884469,51.7860018 92.790851,52.1215059 92.0969034,52.1215059 Z M99.7395282,52.9438021 L99.7395282,52.2404142 C100.038507,52.7489756 100.604346,53.0735036 101.340696,53.0735036 C102.856338,53.0735036 103.78521,51.8723474 103.78521,50.2817211 C103.78521,48.7339017 102.941863,47.5325626 101.383458,47.5325626 C100.582875,47.5325626 99.9849179,47.9112396 99.7501738,48.322845 L99.7501738,45.1084809 L98.5335102,45.1084809 L98.5335102,52.9438021 L99.7395282,52.9438021 Z M102.536429,50.2923313 C102.536429,51.3314064 101.949298,51.959059 101.137708,51.959059 C100.348131,51.959059 99.7395282,51.3314064 99.7395282,50.2923313 C99.7395282,49.242463 100.348131,48.647373 101.137708,48.647373 C101.959763,48.647373 102.536429,49.242463 102.536429,50.2923313 Z M104.553496,51.5152568 C104.553496,52.3485292 105.225972,53.1062491 106.314888,53.1062491 C107.157874,53.1062491 107.670486,52.6734231 107.916056,52.2727938 C107.916056,52.6950095 107.958458,52.9114225 107.969464,52.9438021 L109.122254,52.9438021 C109.111428,52.8898361 109.05802,52.5759183 109.05802,52.0997366 L109.05802,49.4806454 C109.05802,48.4307771 108.449598,47.5111591 106.84843,47.5111591 C105.567713,47.5111591 104.756484,48.322845 104.660132,49.2318528 L105.791992,49.4912557 C105.84522,48.9611079 106.208072,48.539258 106.859257,48.539258 C107.542378,48.539258 107.841176,48.8963486 107.841176,49.3399678 C107.841176,49.5240012 107.755831,49.675472 107.456852,49.7188277 L106.122907,49.9244475 C105.236798,50.054149 104.553496,50.5736865 104.553496,51.5152568 Z M106.549813,52.1215059 C106.058673,52.1215059 105.791992,51.796612 105.791992,51.4395214 C105.791992,51.0066954 106.101436,50.7902825 106.485579,50.7251573 L107.841176,50.5197205 L107.841176,50.757537 C107.841176,51.7860018 107.2434,52.1215059 106.549813,52.1215059 Z M111.684231,49.9028611 C111.684231,49.2102664 112.057548,48.6583492 112.76196,48.6583492 C113.541253,48.6583492 113.829766,49.1775209 113.829766,49.8271257 L113.829766,52.9438021 L115.067721,52.9438021 L115.067721,49.6103468 C115.067721,48.4525465 114.459299,47.5217694 113.188866,47.5217694 C112.612742,47.5217694 111.993674,47.770562 111.651933,48.3768111 L111.651933,47.6732402 L110.445735,47.6732402 L110.445735,52.9438021 L111.684231,52.9438021 L111.684231,49.9028611 Z M121.30134,55 L121.30134,47.6732402 L120.116613,47.6732402 L120.116613,48.3768111 C119.935097,47.9979511 119.433492,47.5435387 118.526272,47.5435387 C117.010269,47.5435387 116.060466,48.7772574 116.060466,50.2923313 C116.060466,51.8617372 117.074503,53.0735036 118.558208,53.0735036 C119.284093,53.0735036 119.828461,52.7813552 120.084676,52.3161496 L120.084676,55 L121.30134,55 Z M117.309247,50.2923313 C117.309247,49.2858188 117.875087,48.6583492 118.696962,48.6583492 C119.508011,48.6583492 120.095142,49.2858188 120.095142,50.2923313 C120.095142,51.2988438 119.508011,51.9696693 118.696962,51.9696693 C117.885552,51.9696693 117.309247,51.2988438 117.309247,50.2923313 Z M126.104843,52.3595053 C126.104843,52.5759183 126.126134,52.824711 126.147605,52.9438021 L127.332332,52.9438021 C127.311041,52.7489756 127.279104,52.4136543 127.279104,51.9806454 L127.279104,47.6732402 L126.040608,47.6732402 L126.040608,50.7902825 C126.040608,51.4828772 125.667111,51.9696693 124.951872,51.9696693 C124.204697,51.9696693 123.906079,51.4177521 123.906079,50.7685131 L123.906079,47.6732402 L122.667583,47.6732402 L122.667583,50.9957193 C122.667583,52.1644958 123.393648,53.0952729 124.631602,53.0952729 C125.240024,53.0952729 125.848627,52.8355042 126.104843,52.3595053 Z M129.606156,49.729438 C129.648558,49.1669106 130.097116,48.5608444 130.876408,48.5608444 C131.73022,48.5608444 132.135835,49.1127616 132.157126,49.729438 L129.606156,49.729438 Z M132.29606,51.1040173 C132.125369,51.6235548 131.740866,52.0238182 130.993871,52.0238182 C130.225224,52.0238182 129.606156,51.4501317 129.573858,50.6494219 L133.37415,50.6494219 C133.384796,50.6278355 133.406087,50.4547783 133.406087,50.2489756 C133.406087,48.5822479 132.46675,47.5111591 130.865582,47.5111591 C129.552567,47.5111591 128.335904,48.6149934 128.335904,50.2817211 C128.335904,52.067174 129.584684,53.1062491 130.993871,53.1062491 C132.242651,53.1062491 133.064346,52.3595053 133.342033,51.4395214 L132.29606,51.1040173 Z M134.259899,52.1321162 C134.259899,52.6190912 134.644403,53.0087443 135.124717,53.0087443 C135.60485,53.0087443 136,52.6190912 136,52.1321162 C136,51.6453242 135.60485,51.2446949 135.124717,51.2446949 C134.644403,51.2446949 134.259899,51.6453242 134.259899,52.1321162 Z" id="Fill-1" fill="#FEFEFE"></path>
            </g>
        </g>
    </g>
</svg>