<?xml version="1.0" encoding="utf-8"?>
<svg xmlns="http://www.w3.org/2000/svg" xmlns:xlink="http://www.w3.org/1999/xlink" viewBox="0 0 14 15">
  <defs>
    <path id="ear_icon-a" d="M0.355 0.961L9.906 0.961 9.906 13.538 0.355 13.538z"/>
    <path id="ear_icon-c" d="M-3 6.391L4.337 6.391 4.337 13.445 -3 13.445z"/>
    <path id="ear_icon-e" d="M8.901 0.475L10.99 0.475 10.99 2.484 8.901 2.484z"/>
  </defs>
  <g fill="none" fill-rule="evenodd" transform="translate(3 1)">
    <g transform="translate(0 .462)">
      <mask id="ear_icon-b" fill="#fff">
        <use xlink:href="#ear_icon-a"/>
      </mask>
      <path fill="#7A7D85" d="M8.25656,2.1087 C7.22616,1.24985385 5.85192,0.853546154 4.47768,0.985469231 C2.34744,1.31608462 0.62992,2.96754615 0.35496,4.94962308 L1.7292,5.14777692 C1.93528,3.69446923 3.17176,2.50500769 4.68376,2.30685385 C5.71416,2.17493077 6.67624,2.43877692 7.43224,3.09946923 C8.11936,3.76016154 8.53152,4.68523846 8.53152,5.61031538 C8.53152,6.60108462 8.11936,7.52616154 7.29448,8.12116154 C6.47016,8.78185385 5.9208,9.77262308 5.71416,10.8296231 C5.64584,11.2259308 5.43976,11.5565462 5.09592,11.8209308 C4.82096,12.1510077 4.33992,12.2172385 3.92776,12.2172385 C3.44672,12.1510077 3.03456,11.9528538 2.76016,11.6222385 L1.66032,12.4816231 C2.21024,13.0760846 2.89736,13.4723923 3.72168,13.5386231 L3.99664,13.5386231 C4.68376,13.5386231 5.37088,13.2742385 5.98912,12.8779308 C6.53904,12.4153923 6.9512,11.8209308 7.08896,11.0940077 C7.22616,10.3008538 7.63832,9.57446923 8.18768,9.11193077 C9.28752,8.25308462 9.90576,6.99793077 9.90576,5.61031538 C9.90576,4.28893077 9.28752,3.03377692 8.25656,2.1087" mask="url(#ear_icon-b)"/>
      <path fill="#7A7D85" d="M7.0198,7.4602 C7.56972,6.99766154 7.84468,6.33696923 7.84468,5.61004615 C7.84468,4.88366154 7.56972,4.22296923 7.0198,3.76043077 C5.9894,2.76966154 4.203,2.76966154 3.17204,3.76043077 L4.13412,4.68550769 C4.68404,4.15673846 5.50836,4.15673846 6.05772,4.68550769 C6.33268,4.94935385 6.47044,5.27996923 6.47044,5.61004615 C6.47044,5.94066154 6.33268,6.27127692 6.05772,6.53512308 L7.0198,7.4602 Z" mask="url(#ear_icon-b)"/>
      <mask id="ear_icon-d" fill="#fff">
        <use xlink:href="#ear_icon-c"/>
      </mask>
      <path fill="#7A7D85" mask="url(#ear_icon-d)" d="M-3 12.511L3.365 6.391 4.337 7.325 -2.028 13.445z"/>
    </g>
    <mask id="ear_icon-f" fill="#fff">
      <use xlink:href="#ear_icon-e"/>
    </mask>
    <path fill="#7A7D85" mask="url(#ear_icon-f)" d="M8.901 1.55L10.019 0.475 10.991 1.409 9.873 2.484z"/>
  </g>
</svg>