<?xml version="1.0" encoding="utf-8"?>
<svg xmlns="http://www.w3.org/2000/svg" xmlns:xlink="http://www.w3.org/1999/xlink" width="51px" height="51px" viewBox="0 0 51 51" version="1.1">
    
    <title>btn_Insta</title>
    <desc>Created with Sketch.</desc>
    <defs/>
    <g id="Symbols" stroke="none" stroke-width="1" fill="none" fill-rule="evenodd">
        <g id="Desktop/Footer_Desk" transform="translate(-727.000000, -40.000000)">
            <g id="Footer">
                <g id="ico_reseaux" transform="translate(536.000000, 40.000000)">
                    <g id="btn_Insta" transform="translate(191.000000, 0.000000)">
                        <rect id="Rectangle-19" fill="#2C2D31" x="0" y="0" width="51" height="51" rx="2"/>
                        <g id="Instagram" transform="translate(16.000000, 15.000000)" fill="#FFFFFF">
                            <path d="M10,0 C7.28455285,0 6.94308943,0.012195122 5.87804878,0.0609756098 C4.81300813,0.109756098 4.08536585,0.280487805 3.45121951,0.524390244 C2.79268293,0.780487805 2.23577236,1.12195122 1.67886179,1.67886179 C1.12195122,2.23170732 0.780487805,2.79268293 0.524390244,3.44715447 C0.276422764,4.08130081 0.109756098,4.80894309 0.0609756098,5.87398374 C0.012195122,6.93902439 0,7.2804878 0,9.99593496 C0,12.7113821 0.012195122,13.0528455 0.0609756098,14.1178862 C0.109756098,15.1829268 0.280487805,15.9105691 0.524390244,16.5447154 C0.780487805,17.203252 1.12195122,17.7601626 1.67886179,18.3170732 C2.23577236,18.8739837 2.79268293,19.2154472 3.45121951,19.4715447 C4.08536585,19.7195122 4.81300813,19.8861789 5.87804878,19.9349593 C6.94308943,19.9837398 7.28455285,19.995935 10,19.995935 C12.7154472,19.995935 13.0569106,19.9837398 14.1219512,19.9349593 C15.1869919,19.8861789 15.9146341,19.7154472 16.5487805,19.4715447 C17.2073171,19.2154472 17.7642276,18.8739837 18.3211382,18.3170732 C18.8780488,17.7601626 19.2195122,17.203252 19.4756098,16.5447154 C19.7235772,15.9105691 19.8902439,15.1829268 19.9390244,14.1178862 C19.9878049,13.0528455 20,12.7113821 20,9.99593496 C20,7.2804878 19.9878049,6.93902439 19.9390244,5.87398374 C19.8902439,4.80894309 19.7195122,4.08130081 19.4756098,3.44715447 C19.2195122,2.79268293 18.8780488,2.23170732 18.3252033,1.67886179 C17.7682927,1.12195122 17.2113821,0.780487805 16.5528455,0.524390244 C15.9186992,0.276422764 15.1910569,0.109756098 14.1260163,0.0609756098 C13.0569106,0.012195122 12.7154472,0 10,0 M10,1.80081301 C12.6707317,1.80081301 12.9878049,1.81300813 14.0406504,1.85772358 C15.0162602,1.90243902 15.5447154,2.06504065 15.898374,2.20325203 C16.3658537,2.38617886 16.699187,2.60162602 17.0487805,2.95121951 C17.398374,3.30081301 17.6138211,3.63414634 17.796748,4.10162602 C17.9349593,4.45528455 18.097561,4.98373984 18.1422764,5.95934959 C18.1910569,7.01219512 18.199187,7.32926829 18.199187,10 C18.199187,12.6707317 18.1869919,12.9878049 18.1422764,14.0406504 C18.097561,15.0162602 17.9349593,15.5447154 17.796748,15.898374 C17.6138211,16.3658537 17.398374,16.699187 17.0487805,17.0487805 C16.699187,17.398374 16.3658537,17.6138211 15.898374,17.796748 C15.5447154,17.9349593 15.0162602,18.097561 14.0406504,18.1422764 C12.9878049,18.1910569 12.6707317,18.199187 10,18.199187 C7.32926829,18.199187 7.01219512,18.1869919 5.95934959,18.1422764 C4.98373984,18.097561 4.45528455,17.9349593 4.10162602,17.796748 C3.63414634,17.6138211 3.30081301,17.398374 2.95121951,17.0487805 C2.60162602,16.699187 2.38617886,16.3658537 2.20325203,15.898374 C2.06504065,15.5447154 1.90243902,15.0162602 1.85772358,14.0406504 C1.80894309,12.9878049 1.80081301,12.6707317 1.80081301,10 C1.80081301,7.32926829 1.81300813,7.01219512 1.85772358,5.95934959 C1.90243902,4.98373984 2.06504065,4.45528455 2.20325203,4.10162602 C2.38617886,3.63414634 2.60162602,3.30081301 2.95121951,2.95121951 C3.30081301,2.60162602 3.63414634,2.38617886 4.10162602,2.20325203 C4.45528455,2.06504065 4.98373984,1.90243902 5.95934959,1.85772358 C7.01626016,1.80894309 7.32926829,1.80081301 10,1.80081301" id="Fill-1"/>
                            <path d="M10,13.3333333 C8.15853659,13.3333333 6.66666667,11.8414634 6.66666667,10 C6.66666667,8.15853659 8.15853659,6.66666667 10,6.66666667 C11.8414634,6.66666667 13.3333333,8.15853659 13.3333333,10 C13.3333333,11.8414634 11.8414634,13.3333333 10,13.3333333 M10,4.86585366 C7.16260163,4.86585366 4.86585366,7.16666667 4.86585366,10 C4.86585366,12.8333333 7.16666667,15.1341463 10,15.1341463 C12.8333333,15.1341463 15.1341463,12.8333333 15.1341463,10 C15.1341463,7.16666667 12.8373984,4.86585366 10,4.86585366" id="Fill-3"/>
                            <path d="M15.3414634,3.46341463 C16.0037398,3.46341463 16.5406504,4.0003252 16.5406504,4.66260163 C16.5406504,5.32487805 16.0037398,5.86178862 15.3414634,5.86178862 C14.679187,5.86178862 14.1422764,5.32487805 14.1422764,4.66260163 C14.1422764,4.0003252 14.679187,3.46341463 15.3414634,3.46341463" id="Fill-5"/>
                        </g>
                    </g>
                </g>
            </g>
        </g>
    </g>
</svg>