<?xml version="1.0" encoding="UTF-8"?>
<svg viewBox="0 0 48 34" version="1.1" xmlns="http://www.w3.org/2000/svg" xmlns:xlink="http://www.w3.org/1999/xlink">
    <!-- Generator: sketchtool 51.1 (57501) - http://www.bohemiancoding.com/sketch -->
    <title>AAE75BB3-BA99-4907-B558-48FA1CDEF117</title>
    <desc>Created with sketchtool.</desc>
    <defs>
        <polygon id="path-1" points="3.86966745e-05 0.00164684289 44.3035239 0.00164684289 44.3035239 34 3.86966745e-05 34"></polygon>
    </defs>
    <g id="Symbols" stroke="none" stroke-width="1" fill="none" fill-rule="evenodd">
        <g id="Mobile/header/Bar" transform="translate(-136.000000, -18.000000)">
            <g id="Logo/Logo_griffe" transform="translate(136.000000, 18.000000)">
                <path d="M40.1625436,17.7657658 L48,17.7657658 L48,16.7507697 L39.6361937,16.7507697 L39.6361937,5.81981982 L36.3076923,5.81981982 L36.3076923,14.5981333 C36.3076923,17.0829309 37.5773723,17.7657658 40.1625436,17.7657658" id="Fill-1" fill="#FEFEFE"></path>
                <path d="M26.8112591,5.81981982 C20.3613382,5.81981982 16.6153846,8.49100714 16.6153846,12.3712951 C16.6153846,16.0845791 20.5010648,18.3783784 26.1245526,18.3783784 C28.056872,18.3783784 30.029141,18.1014651 31.3846154,17.6565752 L31.3846154,16.3702462 C30.2781473,16.9645351 28.6104455,17.3711998 27.0156614,17.3711998 C22.6457377,17.3711998 20.1757471,14.7044867 20.1757471,12.102552 C20.1757471,8.98277873 22.8504309,6.81522932 26.9863779,6.81522932 C28.4199091,6.81522932 30.0669574,7.16158981 31.2881352,7.76803677 L31.2881352,6.41556764 C29.8271628,6.00617946 27.940417,5.81981982 26.8112591,5.81981982" id="Fill-5" fill="#FEFEFE"></path>
                <path d="M16.6153846,17.7657658 L9.72427259,17.7657658 C7.12330352,17.7657658 5.84615385,17.0829309 5.84615385,14.5981333 L5.84615385,5.81981982 L9.19518839,5.81981982 L9.19518839,16.7507697 L15.6314635,16.7507697 C15.8632693,17.0433994 16.3685365,17.5765929 16.6153846,17.7657658" id="Fill-3" fill="#FEFEFE"></path>
                <g id="Group-9" stroke-width="1">
                    <mask id="mask-2" fill="white">
                        <use xlink:href="#path-1"></use>
                    </mask>
                    <g id="Clip-8"></g>
                    <path d="M44.2968959,25.5220952 C44.2613917,25.4695059 44.1782906,25.5653416 44.1782906,25.5653416 C39.7144357,30.0669224 33.0133326,32.9584635 25.4157243,32.9584635 C11.9716289,32.9584635 1.07300074,23.962911 1.07300074,12.8660045 C1.07300074,8.07248612 3.10728492,3.70574958 6.50204743,0.252197167 C6.50204743,0.252197167 6.60062721,0.155109348 6.60207833,0.0768033994 C6.60459362,-0.0657461756 6.50204743,0.0382764873 6.50204743,0.0382764873 C2.55266483,3.60866176 3.86966745e-05,8.65424249 3.86966745e-05,13.8562425 C3.86966745e-05,25.5396249 10.7795778,34.0000385 24.2790095,34.0000385 C32.3662275,34.0000385 39.7424908,30.6775739 44.2155362,25.6893983 C44.2155362,25.6893983 44.3321099,25.5749734 44.2968959,25.5220952" id="Fill-7" fill="#FEFEFE" mask="url(#mask-2)"></path>
                </g>
            </g>
        </g>
    </g>
</svg>