<?xml version="1.0" encoding="utf-8"?>
<svg xmlns="http://www.w3.org/2000/svg" viewBox="0 0 51 51">
  <g fill="none" fill-rule="evenodd">
    <rect width="51" height="51" fill="#2C2D31" rx="2"/>
    <path fill="#FFF" d="M16.3553398,35 L16.3553398,22.283865 L20.2579755,22.283865 L20.2579755,35 L16.3553398,35 Z M30.7321916,22.0057937 C35.1727658,22.0057937 34.9990859,27.2065648 34.9990859,27.2065648 L34.9990859,34.9997175 L31.0269782,34.9997175 L31.062653,28.6068087 C31.062653,28.6068087 31.3743381,25.4324832 28.9813098,25.4324832 C27.0304614,25.4324832 26.6887343,27.5559196 26.6399162,28.6181086 L26.6399162,34.9997175 L22.7372805,34.9997175 L22.7372805,22.2835825 L26.6399162,22.2835825 L26.6399162,23.8420247 C27.4792129,22.8099687 28.7644446,22.0057937 30.7321916,22.0057937 Z M18.3085353,16 C19.5834401,16 20.6170706,17.0367643 20.6170706,18.3155344 C20.6170706,19.5943045 19.5834401,20.6310687 18.3085353,20.6310687 C17.0336305,20.6310687 16,19.5943045 16,18.3155344 C16,17.0367643 17.0336305,16 18.3085353,16 Z"/>
  </g>
</svg>